<svg id="Layer_1" data-name="Layer 1" xmlns="http://www.w3.org/2000/svg" viewBox="0 0 737.84 282.89"><defs><style>.cls-1{fill:#fff;}</style></defs><path class="cls-1" d="M103.87,73.54h25.07V86.36l5-8.72a24.19,24.19,0,0,1,11.55-5.82c.48-.69,1-1.39,1.45-2.08V35.49H0V73.43H99.92C71,110.44,33,185.28,24.6,247.7H72.07c4.55-33.62,16.46-69.42,31.8-102.76Z"/><path class="cls-1" d="M106.16,75.84V140a482.92,482.92,0,0,1,37.31-65.28,21.88,21.88,0,0,0-7.83,4.46l-9,15.83V75.84Z"/><path class="cls-1" d="M187.09,60.93C187.09,68.2,182,73,174.54,73S162,68.2,162,60.93c0-7.1,5.11-12,12.54-12S187.09,53.83,187.09,60.93Z"/><rect class="cls-1" x="163.15" y="74.69" width="22.78" height="87.82"/><path class="cls-1" d="M183.1,194.42H160.65c-2.15-12.72-8.75-18-18.16-18-11.56,0-19.81,9.41-19.81,29.38,0,21.79,8.25,31,19.64,31,8.92,0,15.52-5.61,17.83-16.67h22.78c-3.8,21.62-20,32.68-41.93,32.68-23.93,0-41.93-15.19-41.93-45.56,0-30,19.81-46.88,43.91-46.88C166.75,160.41,181.45,174.94,183.1,194.42Z"/><path class="cls-1" d="M127.8,161.59V122.23c0-23.6,9.41-32,28.39-30.7V73.2a25.16,25.16,0,0,0-6.44-.66,22.82,22.82,0,0,0-15,5.95L127.8,90.7v-16H105v87.82H125.2C126.05,162.17,126.92,161.88,127.8,161.59Z"/><path class="cls-1" d="M240.09,237.66l-4.29,9.41c-6.11,4.13-13.54,5.78-21.79,5.78-15.19,0-28.23-8.91-28.23-25.59,0-19.31,16.51-30.2,48.37-30.2h5.61v-1.82a71.78,71.78,0,0,0-.33-8.25c-.66-6.11-4.62-10.57-13.54-10.57s-14,5.28-14.69,14.86l-22.12.16c.66-19.81,16.68-31,37.64-31,24.6,0,33.84,10.73,35.16,25.92.33,4.12.5,8.74.5,13.53v28.39A151.85,151.85,0,0,0,264,250.54H241.74Zm-.33-19.47v-7.1c-18.16-1.32-30.37,2.8-30.37,14.36,0,7.76,5.28,11.39,13.37,11.39C232,236.84,239.76,230.4,239.76,218.19Z"/><path class="cls-1" d="M246.29,162.51H254l34-87.82h-24.6l-21.62,70.65L219.62,74.69H194.36l32.92,84.59C234.79,159.33,241.12,160.42,246.29,162.51Z"/><path class="cls-1" d="M228.53,162.51h9.6a61.17,61.17,0,0,0-9.95-.92Z"/><path class="cls-1" d="M367.91,205c0,31.69-19.48,47.87-42.1,47.87-7.26,0-16.18-1.82-20.63-4.95l-5.78-9.08v44.07H276.62V162.72H299.4v13.37l6.6-9.57c5-4,13.87-6.11,22.78-6.11C353.38,160.41,367.91,179.06,367.91,205Zm-23.61,1.49c0-18-8.58-30.05-22.12-30.05-12.55,0-22.78,7.76-22.78,29.22v4.13c0,20,11.39,27.07,22,27.07C334.56,236.84,344.3,226.77,344.3,206.47Z"/><path class="cls-1" d="M310.44,162.66a47.7,47.7,0,0,1,18.34-3.4,42.56,42.56,0,0,1,14.45,2.45C355,157.23,363.7,148,366.75,134H344c-1.49,9.41-8.59,14.86-18.33,14.86-10.56,0-18.81-5.78-20.3-24.27h62.4a67.81,67.81,0,0,0,.33-7.76c0-23.93-14.2-44.4-41.1-44.4S282.4,92,282.4,118.93C282.4,143.13,293.88,157.54,310.44,162.66ZM326,88.39c10.89,0,17.16,7.43,18.65,21.29H306C308,95.16,315.41,88.39,326,88.39Z"/><path class="cls-1" d="M314.29,163.66a51.13,51.13,0,0,0,10.86,1.16A53.12,53.12,0,0,0,339.44,163a41,41,0,0,0-10.66-1.39A48.75,48.75,0,0,0,314.29,163.66Z"/><path class="cls-1" d="M399.81,149c0,7.27-5.12,12-12.55,12s-12.54-4.78-12.54-12c0-7.09,5.12-12.05,12.54-12.05S399.81,141.87,399.81,149Z"/><path class="cls-1" d="M387.26,138.06c-4.95,0-8.7,2.34-10.39,6.11h20.79C396,140.4,392.22,138.06,387.26,138.06Z"/><path class="cls-1" d="M420.61,72.54a22.82,22.82,0,0,0-15,5.95L398.65,90.7v-16H375.87v66.56c2.38-3.41,6.42-5.48,11.39-5.48s9,2.07,11.39,5.48v-19c0-23.6,9.41-32,28.4-30.7V73.2A25.16,25.16,0,0,0,420.61,72.54Z"/><rect class="cls-1" x="375.87" y="162.72" width="22.78" height="87.82"/><path class="cls-1" d="M442.43,219c0,3,0,5.45.17,7.76.66,8.58,3.79,10.56,16.5,9.57V251.2a92.59,92.59,0,0,1-15,1.16c-17,0-23.11-5.62-24.1-18-.33-4-.33-7.76-.33-12.71V178.4H406.78v-15h12.87V141.76h22.78v21.62h18.16v15H442.43Z"/><path class="cls-1" d="M521.84,237.66l-4.29,9.41c-6.11,4.13-13.54,5.78-21.79,5.78-15.19,0-28.23-8.91-28.23-25.59,0-19.31,16.51-30.2,48.37-30.2h5.61v-1.82a71.78,71.78,0,0,0-.33-8.25c-.66-6.11-4.62-10.57-13.53-10.57-9.08,0-14,5.28-14.7,14.86l-22.12.16c.67-19.81,16.68-31,37.64-31,24.6,0,33.84,10.73,35.16,25.92.33,4.12.5,8.74.5,13.53v28.39a151.85,151.85,0,0,0,1.65,22.29H523.49Zm-.33-19.47v-7.1c-18.16-1.32-30.37,2.8-30.37,14.36,0,7.76,5.28,11.39,13.37,11.39C513.75,236.84,521.51,230.4,521.51,218.19Z"/><path class="cls-1" d="M578.2,221.82c0,3.46,0,5.77.16,8.08.5,4.46,2.48,5.95,10.24,5.45V251a124,124,0,0,1-14,.66c-11.23,0-18.33-4.12-18.82-15.51-.33-4-.33-8.09-.33-13.87v-93.1H578.2Z"/><path class="cls-1" d="M736.51,84.22a1,1,0,0,0-.21-.07,8.55,8.55,0,0,0-2.26-.63q0,.12.12.12c-1.41.22-2.33,1.41-3.58,2-1.41.67-3,.2-4.48.39-1.65.21-3.28,1.11-4.91,1.53s-3.1,1.27-4.71,1.84c-1.15.4-3.06.41-3.76-.8-.21-.35.1-.77.06-1.15a5.62,5.62,0,0,0-.72-2c-.87-1.55-2.64-2.5-3.9-3.69a33.27,33.27,0,0,0-3.94-3.47c-1.55-1.07-3-1.82-4.06-3.41-.87-1.27-1.56-2.66-2.55-3.85-1.17-1.42-2.92-2.14-4.08-3.54-.91-1.1-1-2.53-1.78-3.71s-2.1-1.58-3-2.54c-.56-.58-.42-1.67-.48-2.4-.37-4.33-3.71-6.65-6-10-.79-1.16-.46-2.38-.68-3.68a5.4,5.4,0,0,0-2.36-3.33,13.29,13.29,0,0,1-3.43-3.34,39.66,39.66,0,0,1-2.62-5.21c1.42-1,3.44-1.06,3.58-3.26a13.85,13.85,0,0,0-1.5-5.88c-1.34-3.09-3.77-3.48-6.8-4.14-2.34-.51-3.84-1.43-6.17-.26-2,1-3.61,1.72-5.92,1.41a53.43,53.43,0,0,1-6.56-1.67,10.8,10.8,0,0,1-2.72-.93,7.5,7.5,0,0,0-2.51-1.18c-1-.9-3.45-.32-5-.48,0-.13-.25-.89-.25-1a.36.36,0,0,1-.25,0,6.56,6.56,0,0,0-.28-1.34c-2.41-1-6.17-.28-7.45,2.19-.71,1.38.12,3-.6,4.31-1,1.89-3.25,1.15-4.84.62-1-1.18-3.87-1.67-5.08-.88a2.89,2.89,0,0,1-1.44-.44,3.36,3.36,0,0,0-.09-1.27s-.53-.73-.55-.41l0-.57a4.67,4.67,0,0,0-.81-.45c-.24-.13-.47-.24-.72-.35a11.69,11.69,0,0,1-1.52-.81,11,11,0,0,1-1.58-.56,15.46,15.46,0,0,0-1.77-.49l-2-.49c-1.08-.32-2.17-.7-3.27-1a13.72,13.72,0,0,1-2.45-.53A4.09,4.09,0,0,0,604,13a1.66,1.66,0,0,1-.55-1.73,3,3,0,0,1,.31-1.24,1.67,1.67,0,0,0,.33-.88c0-.64-.58-1.17-.94-1.65a7.3,7.3,0,0,1-.82-1.85,2.71,2.71,0,0,0,.56-2c0,.06.07.12.07.11-.11-.36-.12-.35-.45-.57a3.27,3.27,0,0,0-3-2c-.44-.42-.17-.28-.87-.35-.5-.46-.66-.41-1.37-.61a1.85,1.85,0,0,0-1.7-.09,1.56,1.56,0,0,0-1.49.25A2.81,2.81,0,0,1,591,1.66a8.23,8.23,0,0,0-1.11,0A2,2,0,0,0,587.6,1c-1.3-1-2,.58-3.18.76-1.71.25-3.3-.93-5-.51a.4.4,0,0,1,0-.34c-2.26-.12-6.85,1.87-8.53,3.3a11.6,11.6,0,0,0-4,.94.47.47,0,0,0-.14-.29,10.74,10.74,0,0,0-2,.64,2.72,2.72,0,0,0-2.17.47,4.3,4.3,0,0,1-1.47-.15A15,15,0,0,1,559,5.64c.09-.14-.51-.24-.73-.24,0-.56,0-.41-.45-1l.09.11c.12-1.79-2-2.25-3.39-1.74-1.17.44-1.43,2-2,3-1.54,2.73-4.09,3.47-6.75,4.71-2.84,1.33-5.3,3.51-6.12,6.63-.37,1.42-.22,2.86-.93,4.19A14.62,14.62,0,0,1,535.52,25a12,12,0,0,1-4.17,2.67,7.46,7.46,0,0,0-4.2,2.66,13.67,13.67,0,0,1-3.29,3.45,17.57,17.57,0,0,0-3.54,2.88c-1,1.21-1.64,2.72-2.57,4s-2.06,2.67-3.1,4c-1.84,2.38-4,5.17-4.17,8.31,2.71.62,1,3.92.81,5.69-.1,1.32.12,2.62.11,3.93a11.42,11.42,0,0,1-.75,3.65,30.71,30.71,0,0,1-3.27,6.93c-.71,1-1.31,2-.95,3.3a31,31,0,0,1,1.05,3.89,13.17,13.17,0,0,0,2.95,7c1.85,2.11,4,3.93,5.73,6.16s2.35,5,3.62,7.52a9.47,9.47,0,0,0,2.72,3.4,20,20,0,0,1,3.07,2.36c1.3,1.45,2,3.32,3.47,4.67a7.5,7.5,0,0,0,4.21,2.11,11.79,11.79,0,0,0,5-.81,25.37,25.37,0,0,1,5.45-1.12,23.83,23.83,0,0,1,6.2.12,47.3,47.3,0,0,0,5.28.89c2.23.1,3.89-.94,5.95-1.55a35.8,35.8,0,0,1,5.45-.89,14.52,14.52,0,0,0,5.42-2,3.28,3.28,0,0,1,4,.15c1.17,1.06,2.26,2.25,3.33,3.4s2,2.32,3.33,2.79c2,.7,4.14,0,6.15.56a9.7,9.7,0,0,1,3.79,2.5,4.38,4.38,0,0,1,1.61,3.85c-.12,1.59-.59,3.25-.26,4.84-.8,2-2.16,4.2-1.8,6.48.39,2.46,2.63,4.44,4.25,6.17a63.23,63.23,0,0,1,9,12.52,24.66,24.66,0,0,1,1.76,3.43,10.55,10.55,0,0,1,.14,3.8c0,2.1,1.1,3.74,2,5.54,2.27,4.54-2.07,7.77-2.45,12.14h-.24a36.69,36.69,0,0,0-2.41,6.93,17.32,17.32,0,0,0,1.1,11.15c1.71,3.66,4.81,6.23,6.85,9.66a13.14,13.14,0,0,1,1.52,5.84,29.77,29.77,0,0,0,1.24,5.69c.55,1.92.39,3.93.81,5.87s1.75,3.8,2.9,5.54c1.3,2,2.64,3.91,4,5.84.79,1.11,1.85,2,2.6,3.15.88,1.35.28,2.38-.13,3.75s.44,2.47,1.24,3.43c1.63,2,4.47,4.58,7.21,4.5,4.11-.12,7.6-2.48,11.81-1.95a7.57,7.57,0,0,0,5.49-1.21,24.62,24.62,0,0,1,4.57-2.41,29.45,29.45,0,0,0,5.09-2.29,16.35,16.35,0,0,0,3.95-3.88c1.36-1.68,2.63-3.43,4-5.11a33.89,33.89,0,0,0,3.53-4.33c1-1.8.57-3.69.87-5.64a9.11,9.11,0,0,1,2.06-4.51c1.23-1.37,3.22-1.49,4.61-2.64a6.81,6.81,0,0,0,2.13-4c.64-3.27-.42-6.48-.08-9.73.29-2.77,2.47-4.4,4.46-6.07a63.61,63.61,0,0,1,9.78-7.27c2.69-1.49,5.76-2.86,7.29-5.71,2-3.66.72-8.12,1.17-12.07.21-1.93,1.21-4.14-.1-5.9-.82-1.11-2.19-1.6-3-2.7-1.32-1.81-.19-3.88-.42-5.87-.18-1.62-1.41-2.75-2-4.21-1.07-2.7,1.28-6,2.76-8.11,2-2.89,4.77-5.13,7-7.85,1.23-1.51,1.93-3.29,3.07-4.84a41,41,0,0,1,3.66-3.68c2.81-3,5-6.12,8.3-8.62H723c2.59-.22,3.17-3.84,3.81-5.79a10.12,10.12,0,0,1,2.14-3.48,10,10,0,0,0,2.17-5.14c.71-3.67,4.05-6.19,4.72-9.83.4-2.16-.52-5.82,2-7C737.63,85.06,737,84.84,736.51,84.22Z"/><path class="cls-1" d="M734.23,179.26c-.42-.61-.18-1.39-.13-2.07.15-2.29-.91-5.58-2.79-7l-.71.71c-3.84,1.47-1.1,3.27-3.07,5.22-.13-.2-.37-.47-.52-.7-1.51.57-2.16,2-3,3.3a12.14,12.14,0,0,1-4.45,4.06c-2.39,1.3-5.91,1.27-7.31,4-.39.74-.17,1-.13,1.78s-.87.77-1.12,1.33a6.81,6.81,0,0,0-.13,5.52c1.11,3.49-1.58,5.43-3.2,8.11a3.76,3.76,0,0,0-.26,4c.71,1.58-.32,3.63-.47,5.27a4.33,4.33,0,0,0,2,4.36c1.47.86,3.07.15,4.5-.41a8.46,8.46,0,0,1,4.27-.6c1.74.18,2.61-.81,3.21-2.38a19.67,19.67,0,0,1,2.28-4.92,17.26,17.26,0,0,0,3.06-5.3,34.81,34.81,0,0,1,1.33-4.44c.66-1.52,1.46-3,2.1-4.53,1.34-3.16,1.49-6.52,1.9-9.89a1.54,1.54,0,0,1,2.47-.45,3.54,3.54,0,0,0,1.18-3.55C735.15,180,734.56,179.74,734.23,179.26Z"/></svg>