<svg id="Layer_1" data-name="Layer 1" xmlns="http://www.w3.org/2000/svg" viewBox="0 0 256.75 107.92"><defs><style>.cls-1{fill:#fff;}</style></defs><path class="cls-1" d="M45.31,16.6H56.25v5.59l2.18-3.8a10.56,10.56,0,0,1,5-2.54l.63-.91V0H0V16.55H43.59C31,32.7,14.38,65.34,10.73,92.57H31.44c2-14.66,7.18-30.28,13.87-44.83Z"/><path class="cls-1" d="M46.31,17.6v28A210.13,210.13,0,0,1,62.58,17.13a9.53,9.53,0,0,0-3.41,1.94L55.25,26V17.6Z"/><path class="cls-1" d="M81.61,11.1c0,3.17-2.23,5.26-5.47,5.26s-5.48-2.09-5.48-5.26a5.48,5.48,0,0,1,11,0Z"/><rect class="cls-1" x="71.17" y="17.1" width="9.94" height="38.31"/><path class="cls-1" d="M79.87,69.33h-9.8c-.93-5.55-3.81-7.85-7.92-7.85-5,0-8.64,4.1-8.64,12.81,0,9.51,3.6,13.54,8.57,13.54,3.89,0,6.77-2.45,7.78-7.27H79.8C78.14,90,71.08,94.82,61.51,94.82c-10.44,0-18.29-6.63-18.29-19.88,0-13.1,8.64-20.45,19.15-20.45S79.15,60.83,79.87,69.33Z"/><path class="cls-1" d="M55.75,55V37.84c0-10.3,4.1-14,12.38-13.39v-8a11.17,11.17,0,0,0-2.81-.28,10,10,0,0,0-6.55,2.59l-3,5.33v-7H45.81V55.41h8.8C55,55.26,55.36,55.13,55.75,55Z"/><path class="cls-1" d="M104.73,88.19l-1.87,4.11a16.66,16.66,0,0,1-9.51,2.52C86.73,94.82,81,90.93,81,83.66c0-8.43,7.2-13.18,21.1-13.18h2.45v-.79a30,30,0,0,0-.15-3.6c-.29-2.67-2-4.61-5.9-4.61s-6.12,2.3-6.41,6.48L82.48,68c.29-8.64,7.27-13.54,16.42-13.54,10.73,0,14.76,4.68,15.33,11.31.15,1.8.22,3.81.22,5.9V84.09a65.67,65.67,0,0,0,.72,9.72h-9.72Zm-.14-8.5V76.6c-7.93-.58-13.25,1.22-13.25,6.26,0,3.39,2.3,5,5.83,5C101.2,87.83,104.59,85,104.59,79.69Z"/><path class="cls-1" d="M107.43,55.41h3.35L125.61,17.1H114.88l-9.43,30.82L95.8,17.1h-11L99.14,54A22.51,22.51,0,0,1,107.43,55.41Z"/><path class="cls-1" d="M99.69,55.41h4.18a27.07,27.07,0,0,0-4.34-.4Z"/><path class="cls-1" d="M160.48,73.93c0,13.83-8.49,20.89-18.36,20.89-3.17,0-7.06-.8-9-2.16l-2.52-4v19.22h-9.94V55.5h9.94v5.83l2.88-4.17c2.16-1.73,6.05-2.67,9.94-2.67C154.15,54.49,160.48,62.63,160.48,73.93Zm-10.29.65c0-7.85-3.75-13.1-9.65-13.1-5.48,0-9.94,3.38-9.94,12.74V76c0,8.72,5,11.81,9.58,11.81C145.94,87.83,150.19,83.44,150.19,74.58Z"/><path class="cls-1" d="M135.42,55.48a20.68,20.68,0,0,1,8-1.49,18.42,18.42,0,0,1,6.3,1.07A16,16,0,0,0,160,43H150c-.65,4.11-3.74,6.48-8,6.48-4.61,0-8.21-2.52-8.86-10.58h27.22a30.51,30.51,0,0,0,.14-3.39c0-10.44-6.19-19.37-17.93-19.37s-19.44,8.57-19.44,20.31C123.18,47,128.19,53.24,135.42,55.48Zm6.77-32.4c4.76,0,7.49,3.24,8.14,9.29H133.48C134.34,26,137.58,23.08,142.19,23.08Z"/><path class="cls-1" d="M137.09,55.91a22.14,22.14,0,0,0,4.74.51,23.23,23.23,0,0,0,6.24-.82,17.83,17.83,0,0,0-4.65-.61A21.34,21.34,0,0,0,137.09,55.91Z"/><path class="cls-1" d="M174.4,49.5c0,3.17-2.23,5.26-5.47,5.26s-5.47-2.09-5.47-5.26a5.47,5.47,0,0,1,10.94,0Z"/><path class="cls-1" d="M168.93,44.74a4.71,4.71,0,0,0-4.54,2.67h9.07A4.68,4.68,0,0,0,168.93,44.74Z"/><path class="cls-1" d="M183.47,16.17a10,10,0,0,0-6.55,2.59l-3,5.33v-7H164v29a6.36,6.36,0,0,1,9.94,0V37.84c0-10.3,4.1-14,12.38-13.39v-8A11.17,11.17,0,0,0,183.47,16.17Z"/><rect class="cls-1" x="163.96" y="55.5" width="9.94" height="38.31"/><path class="cls-1" d="M193,80.05c0,1.3,0,2.38.07,3.39.29,3.74,1.66,4.61,7.2,4.18V94.1a40.14,40.14,0,0,1-6.55.5c-7.42,0-10.08-2.45-10.51-7.85-.15-1.73-.15-3.38-.15-5.54V62.34h-5.61V55.79h5.61V46.36H193v9.43h7.92v6.55H193Z"/><path class="cls-1" d="M227.63,88.19l-1.87,4.11a16.64,16.64,0,0,1-9.51,2.52c-6.62,0-12.31-3.89-12.31-11.16,0-8.43,7.2-13.18,21.1-13.18h2.45v-.79a30,30,0,0,0-.15-3.6c-.28-2.67-2-4.61-5.9-4.61S215.32,63.78,215,68l-9.65.07c.29-8.64,7.27-13.54,16.42-13.54,10.73,0,14.76,4.68,15.34,11.31.14,1.8.21,3.81.21,5.9V84.09a67.07,67.07,0,0,0,.72,9.72h-9.72Zm-.14-8.5V76.6c-7.92-.58-13.25,1.22-13.25,6.26,0,3.39,2.3,5,5.83,5C224.1,87.83,227.49,85,227.49,79.69Z"/><path class="cls-1" d="M252.21,81.28c0,1.51,0,2.52.08,3.53.21,1.94,1.08,2.59,4.46,2.37V94a53.57,53.57,0,0,1-6.12.29c-4.9,0-8-1.8-8.21-6.77-.14-1.72-.14-3.52-.14-6V40.88h9.93Z"/></svg>